<svg width="174" height="209" viewBox="0 0 174 209" fill="none" xmlns="http://www.w3.org/2000/svg">
<path fill-rule="evenodd" clip-rule="evenodd" d="M24.1397 30.8135C21.3336 32.0344 20.4642 35.5801 22.3289 38.1995C23.869 40.3619 25.2859 40.7113 32.5197 40.7113H38.9606L39.6283 43.1289C43.6263 57.6045 53.163 91.0316 53.5157 91.806C53.7663 92.3564 54.577 93.0939 55.3169 93.445C56.5682 94.0386 57.7022 93.9398 71.551 92.0264C79.7401 90.8953 93.1566 89.0567 101.366 87.9404C115.238 86.0547 116.375 85.8373 117.47 84.8594C118.557 83.889 119.09 82.0297 124.329 60.8929C127.454 48.2899 130.017 37.3224 130.025 36.5211C130.037 35.4094 129.73 34.7863 128.73 33.8932C128.01 33.2495 127.08 32.7227 126.664 32.7227C126.248 32.7227 108.438 35.1866 87.087 38.1978C65.7361 41.2087 48.2261 43.6212 48.176 43.5586C48.126 43.4955 47.4781 41.3663 46.736 38.8264C45.9935 36.2864 45.177 33.9563 44.9213 33.6481C43.9005 32.4179 41.9693 31.9251 34.8633 31.0809C26.2285 30.0554 25.9018 30.047 24.1397 30.8135ZM113.969 43.7595C113.963 44.0488 113.785 45.0419 113.573 45.9669C113.361 46.8919 112.232 53.3248 111.064 60.2622C109.895 67.1996 108.842 73.2945 108.723 73.8062C108.574 74.4436 108.01 74.8754 106.933 75.1781C104.331 75.9084 65.9897 84.0176 65.1378 84.0176C64.1918 84.0176 64.4727 84.6601 59.7195 71.6143C57.613 65.8332 55.5452 60.1701 55.1248 59.0299C54.7043 57.8896 54.4525 56.717 54.5648 56.4239C54.7994 55.8126 54.3827 55.9114 87.0706 48.7229C100.599 45.7478 112.187 43.2958 112.823 43.2739C113.494 43.2508 113.975 43.4547 113.969 43.7595ZM97.539 0.964106C94.1014 2.14053 91.3079 3.77356 89.035 5.93551C86.8692 7.99572 87.2523 8.40271 91.0678 8.09621C92.5457 7.97764 93.7549 8.02305 93.7549 8.19753C93.7549 8.37202 92.9796 9.26715 92.0319 10.1867C86.2348 15.8127 87.7711 25.7871 94.7354 27.7371C97.8463 28.6083 102.066 28.1277 105.303 26.5338C112.648 22.9179 116.302 12.5811 112.718 5.55668C111.789 3.73656 108.961 1.01329 107.37 0.408685C105.454 -0.319534 100.468 -0.0382473 97.539 0.964106ZM126.018 85.7538C119.353 92.7484 115.461 95.9787 110.544 98.5943C104.534 101.792 95.2652 104.388 86.1687 105.42C80.8135 106.028 71.7145 105.723 66.8949 104.773C58.1272 103.046 48.8538 98.892 40.5936 92.9905C35.8476 89.6005 34.8633 89.1623 34.8633 90.4414C34.8633 91.4067 38.66 96.2167 42.016 99.5025C52.7282 109.992 65.7285 115.213 81.1128 115.203C100.745 115.192 115.414 108.051 126.579 93.0713C129.707 88.8752 133.123 82.6643 133.324 80.8076C133.595 78.3084 132.235 79.2288 126.018 85.7538Z" fill="#0182FE"/>
<path d="M47.4891 23.9026C50.1132 20.8552 53.4688 18.4161 57.7042 16.4775C61.3128 14.8258 67.6376 13.8318 70.175 14.5167C72.2806 15.0854 76.236 18.199 77.6527 20.4026C80.4245 24.7151 77.4249 24.9496 73.7943 24.133C68.7138 22.9903 63.4078 22.4583 58.4651 24.0975L58.1832 24.218C56.1734 25.0774 54.0748 25.7118 51.9255 26.1097C50.881 26.3031 49.8217 26.4829 48.7651 26.3729C47.4186 26.2328 45.9362 25.7062 47.4891 23.9026Z" fill="#0182FE"/>
<path d="M0.726157 170.837L5.25401 167.774V146.067L13.5995 143.936V172.213L5.2984 177.762L0.726157 170.837ZM6.7189 133.238H13.1112V139.497H6.7189V133.238ZM29.0862 165.51C27.1331 165.51 25.3278 165.022 23.6706 164.045C22.0133 163.069 20.6964 161.752 19.7198 160.094C18.7432 158.437 18.2549 156.632 18.2549 154.679V134.925L26.556 132.794V154.679C26.556 155.359 26.8075 155.937 27.3106 156.41C27.8137 156.884 28.4056 157.12 29.0862 157.12L30.5511 161.337L29.0862 165.51ZM28.9371 165.51L27.561 161.337L28.9815 157.12H29.0703C29.751 157.12 30.328 156.884 30.8015 156.41C31.275 155.937 31.5118 155.359 31.5118 154.679V146.067H39.9016V154.768C39.9016 155.419 40.1236 155.981 40.5675 156.454C41.041 156.898 41.6033 157.12 42.2543 157.12C42.9054 157.12 43.4529 156.898 43.8968 156.454C44.3703 155.981 44.607 155.419 44.607 154.768V146.067H52.9969V154.768C52.9969 155.419 53.2188 155.981 53.6627 156.454C54.1362 156.898 54.6985 157.12 55.3496 157.12C56.0006 157.12 56.5481 156.898 56.992 156.454C57.4655 155.981 57.7023 155.419 57.7023 154.768V146.023L66.0477 143.936V154.768C66.0477 156.721 65.5594 158.526 64.5828 160.183C63.6358 161.811 62.3337 163.113 60.6765 164.09C59.0488 165.037 57.2732 165.51 55.3496 165.51C52.9821 165.51 50.8069 164.77 48.8241 163.291C47.9067 164.001 46.871 164.548 45.7168 164.933C44.5922 165.318 43.4381 165.51 42.2543 165.51C41.0706 165.51 39.9016 165.303 38.7475 164.889C37.6229 164.474 36.6019 163.927 35.6845 163.246C33.6425 164.755 31.4378 165.51 29.0703 165.51H28.9371ZM70.4344 161.337L71.9437 157.12H80.8218L82.3311 161.471L80.8218 165.51H71.9437L70.4344 161.337ZM79.3212 161.337L80.8305 157.12H89.7086L91.2179 161.471L89.7086 165.51H80.8305L79.3212 161.337ZM89.5398 165.51L88.208 161.337L89.6285 157.12H89.7173C90.398 157.12 90.9751 156.884 91.4486 156.41C91.9221 155.937 92.1588 155.359 92.1588 154.679V145.978L100.549 143.936V154.679C100.549 156.632 100.06 158.437 99.0837 160.094C98.1072 161.752 96.7902 163.069 95.133 164.045C93.4757 165.022 91.6705 165.51 89.7173 165.51H89.5398ZM87.7641 133.149H100.726V139.497H87.7641V133.149ZM100.215 170.837L104.743 167.774V146.067L113.088 143.936V172.213L104.787 177.762L100.215 170.837ZM128.575 165.51C126.622 165.51 124.817 165.022 123.159 164.045C121.502 163.069 120.185 161.752 119.209 160.094C118.232 158.437 117.744 156.632 117.744 154.679V134.925L126.045 132.794V154.679C126.045 155.359 126.296 155.937 126.799 156.41C127.303 156.884 127.894 157.12 128.575 157.12L130.04 161.337L128.575 165.51ZM127.05 161.337L128.559 157.12H161.098C161.778 157.12 162.355 156.884 162.829 156.41C163.302 155.937 163.539 155.359 163.539 154.679C163.539 153.998 163.302 153.421 162.829 152.948C162.355 152.474 161.778 152.237 161.098 152.237H130.734V143.847L150.399 132.839L154.572 139.098L146.093 143.847H161.098C163.051 143.847 164.856 144.336 166.513 145.312C168.17 146.289 169.487 147.606 170.464 149.263C171.441 150.92 171.929 152.726 171.929 154.679C171.929 156.632 171.441 158.437 170.464 160.094C169.487 161.752 168.17 163.069 166.513 164.045C164.856 165.022 163.051 165.51 161.098 165.51H128.559L127.05 161.337Z" fill="#171F26"/>
<path d="M12.9513 203.858C11.373 203.858 9.94357 203.515 8.66305 202.83C7.39741 202.131 6.39979 201.17 5.67019 199.949C4.95547 198.728 4.59812 197.351 4.59812 195.817C4.59812 194.284 4.96292 192.906 5.69252 191.685C6.42212 190.464 7.41974 189.511 8.68538 188.827C9.96591 188.127 11.3953 187.777 12.9737 187.777C14.2542 187.777 15.423 188 16.4802 188.447C17.5374 188.894 18.4308 189.541 19.1604 190.39L17.2843 192.154C16.1526 190.933 14.7604 190.323 13.1077 190.323C12.0356 190.323 11.0752 190.561 10.2265 191.038C9.37776 191.499 8.71516 192.147 8.23869 192.981C7.76221 193.815 7.52397 194.76 7.52397 195.817C7.52397 196.875 7.76221 197.82 8.23869 198.654C8.71516 199.488 9.37776 200.143 10.2265 200.619C11.0752 201.081 12.0356 201.312 13.1077 201.312C14.7604 201.312 16.1526 200.694 17.2843 199.458L19.1604 201.245C18.4308 202.093 17.53 202.741 16.4579 203.188C15.4007 203.635 14.2319 203.858 12.9513 203.858ZM31.7553 200.016H23.9381L22.397 203.635H19.4042L26.4396 188H29.2985L36.3563 203.635H33.3187L31.7553 200.016ZM30.7949 197.738L27.8467 190.904L24.9208 197.738H30.7949ZM48.5739 203.635L45.38 199.056C45.246 199.071 45.045 199.078 44.777 199.078H41.2481V203.635H38.3446V188H44.777C46.132 188 47.3083 188.224 48.3059 188.67C49.3184 189.117 50.0927 189.757 50.6287 190.591C51.1647 191.425 51.4328 192.415 51.4328 193.562C51.4328 194.738 51.1424 195.75 50.5617 196.599C49.9959 197.448 49.1769 198.081 48.1049 198.498L51.7008 203.635H48.5739ZM48.5069 193.562C48.5069 192.564 48.1793 191.797 47.5242 191.261C46.869 190.725 45.9086 190.457 44.643 190.457H41.2481V196.688H44.643C45.9086 196.688 46.869 196.42 47.5242 195.884C48.1793 195.333 48.5069 194.559 48.5069 193.562ZM57.6347 190.457H52.453V188H65.7199V190.457H60.5382V203.635H57.6347V190.457ZM72.5929 203.858C71.3868 203.858 70.2179 203.687 69.0863 203.344C67.9696 203.002 67.0836 202.548 66.4285 201.982L67.4335 199.726C68.0738 200.232 68.8555 200.649 69.7787 200.977C70.7167 201.289 71.6548 201.446 72.5929 201.446C73.7543 201.446 74.6179 201.26 75.1837 200.887C75.7644 200.515 76.0548 200.024 76.0548 199.413C76.0548 198.967 75.891 198.602 75.5634 198.319C75.2507 198.021 74.8487 197.79 74.3573 197.626C73.8659 197.463 73.1959 197.277 72.3472 197.068C71.156 196.785 70.1881 196.502 69.4437 196.219C68.7141 195.936 68.0812 195.497 67.5452 194.902C67.0241 194.291 66.7635 193.472 66.7635 192.445C66.7635 191.581 66.9943 190.799 67.4559 190.1C67.9323 189.385 68.6396 188.819 69.5777 188.402C70.5306 187.985 71.692 187.777 73.0619 187.777C74.0148 187.777 74.9529 187.896 75.8761 188.134C76.7992 188.372 77.5959 188.715 78.2659 189.162L77.3502 191.417C76.6652 191.015 75.9505 190.71 75.206 190.502C74.4615 190.293 73.7394 190.189 73.0396 190.189C71.893 190.189 71.0369 190.383 70.4711 190.77C69.9201 191.157 69.6447 191.671 69.6447 192.311C69.6447 192.757 69.801 193.122 70.1137 193.405C70.4413 193.688 70.8507 193.911 71.3421 194.075C71.8335 194.239 72.5035 194.425 73.3522 194.634C74.5137 194.902 75.4666 195.185 76.2111 195.482C76.9556 195.765 77.5884 196.204 78.1096 196.8C78.6456 197.396 78.9136 198.2 78.9136 199.212C78.9136 200.076 78.6754 200.858 78.1989 201.557C77.7373 202.257 77.03 202.816 76.0771 203.232C75.1241 203.649 73.9627 203.858 72.5929 203.858ZM91.9327 200.016H84.1155L82.5744 203.635H79.5815L86.617 188H89.4759L96.5336 203.635H93.4961L91.9327 200.016ZM90.9723 197.738L88.0241 190.904L85.0982 197.738H90.9723ZM110.672 201.178V203.635H97.3382V201.691L106.54 190.457H97.4946V188H110.382V189.943L101.18 201.178H110.672Z" fill="#0182FE"/>
<path d="M113.957 203.791C113.451 203.791 113.019 203.62 112.662 203.277C112.304 202.92 112.126 202.473 112.126 201.937C112.126 201.386 112.297 200.939 112.639 200.597C112.997 200.255 113.436 200.083 113.957 200.083C114.478 200.083 114.91 200.255 115.253 200.597C115.61 200.939 115.789 201.386 115.789 201.937C115.789 202.473 115.61 202.92 115.253 203.277C114.895 203.62 114.463 203.791 113.957 203.791ZM125.585 203.858C124.007 203.858 122.577 203.515 121.297 202.83C120.031 202.131 119.033 201.17 118.304 199.949C117.589 198.728 117.232 197.351 117.232 195.817C117.232 194.284 117.597 192.906 118.326 191.685C119.056 190.464 120.053 189.511 121.319 188.827C122.599 188.127 124.029 187.777 125.607 187.777C126.888 187.777 128.057 188 129.114 188.447C130.171 188.894 131.064 189.541 131.794 190.39L129.918 192.154C128.786 190.933 127.394 190.323 125.741 190.323C124.669 190.323 123.709 190.561 122.86 191.038C122.011 191.499 121.349 192.147 120.872 192.981C120.396 193.815 120.158 194.76 120.158 195.817C120.158 196.875 120.396 197.82 120.872 198.654C121.349 199.488 122.011 200.143 122.86 200.619C123.709 201.081 124.669 201.312 125.741 201.312C127.394 201.312 128.786 200.694 129.918 199.458L131.794 201.245C131.064 202.093 130.164 202.741 129.091 203.188C128.034 203.635 126.865 203.858 125.585 203.858ZM141.552 203.858C139.959 203.858 138.522 203.515 137.242 202.83C135.961 202.131 134.956 201.17 134.227 199.949C133.497 198.713 133.132 197.336 133.132 195.817C133.132 194.299 133.497 192.929 134.227 191.708C134.956 190.472 135.961 189.511 137.242 188.827C138.522 188.127 139.959 187.777 141.552 187.777C143.146 187.777 144.582 188.127 145.863 188.827C147.143 189.511 148.149 190.464 148.878 191.685C149.608 192.906 149.973 194.284 149.973 195.817C149.973 197.351 149.608 198.728 148.878 199.949C148.149 201.17 147.143 202.131 145.863 202.83C144.582 203.515 143.146 203.858 141.552 203.858ZM141.552 201.312C142.595 201.312 143.533 201.081 144.367 200.619C145.2 200.143 145.856 199.488 146.332 198.654C146.808 197.805 147.047 196.86 147.047 195.817C147.047 194.775 146.808 193.837 146.332 193.003C145.856 192.154 145.2 191.499 144.367 191.038C143.533 190.561 142.595 190.323 141.552 190.323C140.51 190.323 139.572 190.561 138.738 191.038C137.904 191.499 137.249 192.154 136.773 193.003C136.296 193.837 136.058 194.775 136.058 195.817C136.058 196.86 136.296 197.805 136.773 198.654C137.249 199.488 137.904 200.143 138.738 200.619C139.572 201.081 140.51 201.312 141.552 201.312ZM167.411 203.635L167.389 193.271L162.252 201.848H160.957L155.82 193.405V203.635H153.05V188H155.44L161.649 198.364L167.747 188H170.136L170.159 203.635H167.411Z" fill="#171F26"/>
</svg>
