<svg width="24" height="24" viewBox="0 0 24 24" fill="none" xmlns="http://www.w3.org/2000/svg">
<g clip-path="url(#clip0_1976_3793)">
<rect width="24" height="24" rx="12" fill="white"/>
<g clip-path="url(#clip1_1976_3793)">
<path fill-rule="evenodd" clip-rule="evenodd" d="M-9.11816 0H33.1205V24H-9.11816V0Z" fill="white"/>
<path fill-rule="evenodd" clip-rule="evenodd" d="M-9.11816 16.1176H33.1205V24.0001H-9.11816V16.1176Z" fill="#DA0000"/>
<path fill-rule="evenodd" clip-rule="evenodd" d="M-1.08887 16.4512H1.22436V16.6095H-1.08887V16.4512ZM-0.743981 17.2426H-0.584785V17.3964H-0.743981V17.2426ZM1.23039 17.2376V17.3959H0.768077V17.2376H1.23039ZM1.47902 16.4512H1.63821V17.3962H1.47902V16.4512Z" fill="white"/>
<path fill-rule="evenodd" clip-rule="evenodd" d="M2.4004 17.2376V17.3959H1.52428V17.2376H2.4004ZM0.768555 16.8679H0.927751V17.3962H0.768555V16.8679Z" fill="white"/>
<path fill-rule="evenodd" clip-rule="evenodd" d="M2.26919 16.4512H2.42839V17.3962H2.26919V16.4512ZM1.87123 16.4512H2.03042V17.3962H1.87123V16.4512ZM-0.24066 16.8273V16.9856H-1.08496V16.8273H-0.24066ZM1.61199 16.8273V16.9856H0.767694V16.8273H1.61199Z" fill="white"/>
<path fill-rule="evenodd" clip-rule="evenodd" d="M0.768555 16.8679H0.927753V17.3962H0.768555V16.8679Z" fill="white"/>
<path fill-rule="evenodd" clip-rule="evenodd" d="M0.768555 16.8679H0.927753V17.3962H0.768555V16.8679Z" fill="white"/>
<path fill-rule="evenodd" clip-rule="evenodd" d="M0.767694 16.8679H0.92689V17.3962H0.767694V16.8679ZM-1.08496 16.8679H-0.925765V17.3962H-1.08496V16.8679ZM0.27304 16.8679H0.432189V17.3962H0.27304V16.8679ZM-0.399762 16.8679H-0.240565V17.3962H-0.399762V16.8679Z" fill="white"/>
<path fill-rule="evenodd" clip-rule="evenodd" d="M0.384618 17.2376V17.3959H-0.329102V17.2376H0.384618ZM0.43209 16.8273V16.9856H-0.020373V16.8273H0.43209Z" fill="white"/>
<path fill-rule="evenodd" clip-rule="evenodd" d="M2.67969 16.4512H4.99291V16.6095H2.67969V16.4512ZM3.02457 17.2426H3.18372V17.3964H3.02457V17.2426ZM4.9989 17.2376V17.3959H4.53658V17.2376H4.9989ZM5.24757 16.4512H5.40677V17.3962H5.24757V16.4512Z" fill="white"/>
<path fill-rule="evenodd" clip-rule="evenodd" d="M6.16798 17.2376V17.3959H5.29195V17.2376H6.16798ZM4.53613 16.8679H4.69533V17.3962H4.53613V16.8679Z" fill="white"/>
<path fill-rule="evenodd" clip-rule="evenodd" d="M6.03775 16.4512H6.19695V17.3962H6.03775V16.4512ZM5.63978 16.4512H5.79898V17.3962H5.63978V16.4512ZM3.5279 16.8273V16.9856H2.68359V16.8273H3.5279ZM5.3805 16.8273V16.9856H4.5362V16.8273H5.3805Z" fill="white"/>
<path fill-rule="evenodd" clip-rule="evenodd" d="M4.53613 16.8679H4.69533V17.3962H4.53613V16.8679Z" fill="white"/>
<path fill-rule="evenodd" clip-rule="evenodd" d="M4.53613 16.8679H4.69533V17.3962H4.53613V16.8679Z" fill="white"/>
<path fill-rule="evenodd" clip-rule="evenodd" d="M4.5362 16.8679H4.6954V17.3962H4.5362V16.8679ZM2.68359 16.8679H2.84279V17.3962H2.68359V16.8679ZM4.04155 16.8679H4.20074V17.3962H4.04155V16.8679ZM3.36875 16.8679H3.52799V17.3962H3.36879L3.36875 16.8679Z" fill="white"/>
<path fill-rule="evenodd" clip-rule="evenodd" d="M4.15317 17.2376V17.3959H3.43945V17.2376H4.15317ZM4.20064 16.8273V16.9856H3.74818V16.8273H4.20064Z" fill="white"/>
<path fill-rule="evenodd" clip-rule="evenodd" d="M6.47168 16.4512H8.7849V16.6095H6.47168V16.4512ZM6.81657 17.2426H6.97576V17.3964H6.81657V17.2426ZM8.79094 17.2376V17.3959H8.32862V17.2376H8.79094ZM9.03956 16.4512H9.19876V17.3962H9.03956V16.4512Z" fill="white"/>
<path fill-rule="evenodd" clip-rule="evenodd" d="M9.96094 17.2376V17.3959H9.08482V17.2376H9.96094ZM8.3291 16.8679H8.4883V17.3962H8.3291V16.8679Z" fill="white"/>
<path fill-rule="evenodd" clip-rule="evenodd" d="M9.82974 16.4512H9.98894V17.3962H9.82974V16.4512ZM9.43178 16.4512H9.59097V17.3962H9.43178V16.4512ZM7.31989 16.8273V16.9856H6.47559V16.8273H7.31989ZM9.17255 16.8273V16.9856H8.32824V16.8273H9.17255Z" fill="white"/>
<path fill-rule="evenodd" clip-rule="evenodd" d="M8.3291 16.8679H8.48829V17.3962H8.3291V16.8679Z" fill="white"/>
<path fill-rule="evenodd" clip-rule="evenodd" d="M8.3291 16.8679H8.48829V17.3962H8.3291V16.8679Z" fill="white"/>
<path fill-rule="evenodd" clip-rule="evenodd" d="M8.32824 16.8679H8.48744V17.3962H8.32824V16.8679ZM6.47559 16.8679H6.63478V17.3962H6.47559V16.8679ZM7.83359 16.8679H7.99274V17.3962H7.83354L7.83359 16.8679ZM7.16079 16.8679H7.31998V17.3962H7.16079V16.8679Z" fill="white"/>
<path fill-rule="evenodd" clip-rule="evenodd" d="M7.94517 17.2376V17.3959H7.23145V17.2376H7.94517ZM7.99264 16.8273V16.9856H7.54017V16.8273H7.99264Z" fill="white"/>
<path fill-rule="evenodd" clip-rule="evenodd" d="M10.2783 16.4512H12.5915V16.6095H10.2783V16.4512ZM10.6232 17.2426H10.7824V17.3964H10.6232V17.2426ZM12.5976 17.2376V17.3959H12.1353V17.2376H12.5976ZM12.8462 16.4512H13.0054V17.3962H12.8462V16.4512Z" fill="white"/>
<path fill-rule="evenodd" clip-rule="evenodd" d="M13.7676 17.2376V17.3959H12.8915V17.2376H13.7676ZM12.1357 16.8679H12.2949V17.3962H12.1357V16.8679Z" fill="white"/>
<path fill-rule="evenodd" clip-rule="evenodd" d="M13.6364 16.4512H13.7956V17.3962H13.6364V16.4512ZM13.2384 16.4512H13.3976V17.3962H13.2384V16.4512ZM11.1265 16.8273V16.9856H10.2822V16.8273H11.1265ZM12.9792 16.8273V16.9856H12.1349V16.8273H12.9792Z" fill="white"/>
<path fill-rule="evenodd" clip-rule="evenodd" d="M12.1357 16.8679H12.2949V17.3962H12.1357V16.8679Z" fill="white"/>
<path fill-rule="evenodd" clip-rule="evenodd" d="M12.1357 16.8679H12.2949V17.3962H12.1357V16.8679Z" fill="white"/>
<path fill-rule="evenodd" clip-rule="evenodd" d="M12.1349 16.8679H12.2941V17.3962H12.1349V16.8679ZM10.2822 16.8679H10.4414V17.3962H10.2822V16.8679ZM11.6402 16.8679H11.7994V17.3962H11.6402L11.6402 16.8679ZM10.9674 16.8679H11.1266V17.3962H10.9674V16.8679Z" fill="white"/>
<path fill-rule="evenodd" clip-rule="evenodd" d="M11.7518 17.2376V17.3959H11.0381V17.2376H11.7518ZM11.7993 16.8273V16.9856H11.3468V16.8273H11.7993Z" fill="white"/>
<path fill-rule="evenodd" clip-rule="evenodd" d="M-9.11816 0H33.1205V7.8825H-9.11816V0Z" fill="#239F40"/>
<path fill-rule="evenodd" clip-rule="evenodd" d="M14.1064 16.4512H16.4197V16.6095H14.1064V16.4512ZM14.4513 17.2426H14.6105V17.3964H14.4513V17.2426ZM16.4257 17.2376V17.3959H15.9634V17.2376H16.4257ZM16.6743 16.4512H16.8335V17.3962H16.6743V16.4512Z" fill="white"/>
<path fill-rule="evenodd" clip-rule="evenodd" d="M17.5957 17.2376V17.3959H16.7196V17.2376H17.5957ZM15.9639 16.8679H16.1231V17.3962H15.9639V16.8679Z" fill="white"/>
<path fill-rule="evenodd" clip-rule="evenodd" d="M17.4645 16.4512H17.6237V17.3962H17.4645V16.4512ZM17.0665 16.4512H17.2257V17.3962H17.0665V16.4512ZM14.9547 16.8273V16.9856H14.1104V16.8273H14.9547ZM16.8073 16.8273V16.9856H15.963V16.8273H16.8073Z" fill="white"/>
<path fill-rule="evenodd" clip-rule="evenodd" d="M15.9639 16.8679H16.1231V17.3962H15.9639V16.8679Z" fill="white"/>
<path fill-rule="evenodd" clip-rule="evenodd" d="M15.9639 16.8679H16.1231V17.3962H15.9639V16.8679Z" fill="white"/>
<path fill-rule="evenodd" clip-rule="evenodd" d="M15.963 16.8679H16.1222V17.3962H15.963V16.8679ZM14.1104 16.8679H14.2695V17.3962H14.1104V16.8679ZM15.4684 16.8679H15.6275V17.3962H15.4683L15.4684 16.8679ZM14.7956 16.8679H14.9547V17.3962H14.7956V16.8679Z" fill="white"/>
<path fill-rule="evenodd" clip-rule="evenodd" d="M15.5799 17.2376V17.3959H14.8662V17.2376H15.5799ZM15.6274 16.8273V16.9856H15.1749V16.8273H15.6274Z" fill="white"/>
<path fill-rule="evenodd" clip-rule="evenodd" d="M17.9121 16.4512H20.2253V16.6095H17.9121V16.4512ZM18.257 17.2426H18.4162V17.3964H18.257V17.2426ZM20.2314 17.2376V17.3959H19.7691V17.2376H20.2314ZM20.48 16.4512H20.6392V17.3962H20.48V16.4512Z" fill="white"/>
<path fill-rule="evenodd" clip-rule="evenodd" d="M21.4014 17.2376V17.3959H20.5253V17.2376H21.4014ZM19.7695 16.8679H19.9287V17.3962H19.7695V16.8679Z" fill="white"/>
<path fill-rule="evenodd" clip-rule="evenodd" d="M21.2702 16.4512H21.4294V17.3962H21.2702V16.4512ZM20.8722 16.4512H21.0314V17.3962H20.8722V16.4512ZM18.7603 16.8273V16.9856H17.916V16.8273H18.7603ZM20.613 16.8273V16.9856H19.7687V16.8273H20.613Z" fill="white"/>
<path fill-rule="evenodd" clip-rule="evenodd" d="M19.7695 16.8679H19.9287V17.3962H19.7695V16.8679Z" fill="white"/>
<path fill-rule="evenodd" clip-rule="evenodd" d="M19.7695 16.8679H19.9287V17.3962H19.7695V16.8679Z" fill="white"/>
<path fill-rule="evenodd" clip-rule="evenodd" d="M19.7687 16.8679H19.9279V17.3962H19.7687V16.8679ZM17.916 16.8679H18.0752V17.3962H17.916V16.8679ZM19.274 16.8679H19.4332V17.3962H19.274L19.274 16.8679ZM18.6012 16.8679H18.7604V17.3962H18.6012V16.8679Z" fill="white"/>
<path fill-rule="evenodd" clip-rule="evenodd" d="M19.3866 17.2376V17.3959H18.6729V17.2376H19.3866ZM19.434 16.8273V16.9856H18.9816V16.8273H19.434Z" fill="white"/>
<path fill-rule="evenodd" clip-rule="evenodd" d="M21.7178 16.4512H24.031V16.6095H21.7178V16.4512ZM22.0627 17.2426H22.2219V17.3964H22.0627V17.2426ZM24.037 17.2376V17.3959H23.5747V17.2376H24.037ZM24.2857 16.4512H24.4449V17.3962H24.2857V16.4512Z" fill="white"/>
<path fill-rule="evenodd" clip-rule="evenodd" d="M25.207 17.2376V17.3959H24.3309V17.2376H25.207ZM23.5752 16.8679H23.7344V17.3962H23.5752V16.8679Z" fill="white"/>
<path fill-rule="evenodd" clip-rule="evenodd" d="M25.0758 16.4512H25.235V17.3962H25.0758V16.4512ZM24.6779 16.4512H24.8371V17.3962H24.6779V16.4512ZM22.566 16.8273V16.9856H21.7217V16.8273H22.566ZM24.4186 16.8273V16.9856H23.5743V16.8273H24.4186Z" fill="white"/>
<path fill-rule="evenodd" clip-rule="evenodd" d="M23.5752 16.8679H23.7344V17.3962H23.5752V16.8679Z" fill="white"/>
<path fill-rule="evenodd" clip-rule="evenodd" d="M23.5752 16.8679H23.7344V17.3962H23.5752V16.8679Z" fill="white"/>
<path fill-rule="evenodd" clip-rule="evenodd" d="M23.5743 16.8679H23.7335V17.3962H23.5743V16.8679ZM21.7217 16.8679H21.8809V17.3962H21.7217V16.8679ZM23.0797 16.8679H23.2388V17.3962H23.0796L23.0797 16.8679ZM22.4069 16.8679H22.5661V17.3962H22.4069V16.8679Z" fill="white"/>
<path fill-rule="evenodd" clip-rule="evenodd" d="M23.1922 17.2376V17.3959H22.4785V17.2376H23.1922ZM23.2397 16.8273V16.9856H22.7872V16.8273H23.2397Z" fill="white"/>
<path fill-rule="evenodd" clip-rule="evenodd" d="M-1.08887 6.72388H1.22436V6.88217H-1.08887V6.72388ZM-0.743981 7.51532H-0.584785V7.66907H-0.743981V7.51532ZM1.23039 7.51035V7.66864H0.768077V7.51035H1.23039ZM1.47902 6.72388H1.63821V7.66888H1.47902V6.72388Z" fill="white"/>
<path fill-rule="evenodd" clip-rule="evenodd" d="M2.4004 7.51033V7.66862H1.52428V7.51033H2.4004ZM0.768555 7.14062H0.927751V7.66891H0.768555V7.14062Z" fill="white"/>
<path fill-rule="evenodd" clip-rule="evenodd" d="M2.26919 6.72388H2.42839V7.66888H2.26919V6.72388ZM1.87123 6.72388H2.03042V7.66888H1.87123V6.72388ZM-0.24066 7.1V7.2583H-1.08496V7.1H-0.24066ZM1.61199 7.1V7.2583H0.767694V7.1H1.61199Z" fill="white"/>
<path fill-rule="evenodd" clip-rule="evenodd" d="M0.768555 7.14062H0.927753V7.66891H0.768555V7.14062Z" fill="white"/>
<path fill-rule="evenodd" clip-rule="evenodd" d="M0.768555 7.14062H0.927753V7.66891H0.768555V7.14062Z" fill="white"/>
<path fill-rule="evenodd" clip-rule="evenodd" d="M0.767694 7.14062H0.92689V7.66891H0.767694V7.14062ZM-1.08496 7.14062H-0.925765V7.66891H-1.08496V7.14062ZM0.27304 7.14062H0.432189V7.66891H0.27304V7.14062ZM-0.399762 7.14062H-0.240565V7.66891H-0.399762V7.14062Z" fill="white"/>
<path fill-rule="evenodd" clip-rule="evenodd" d="M0.384618 7.51032V7.66862H-0.329102V7.51032H0.384618ZM0.43209 7.09998V7.25827H-0.020373V7.09998H0.43209Z" fill="white"/>
<path fill-rule="evenodd" clip-rule="evenodd" d="M2.67969 6.72388H4.99291V6.88217H2.67969V6.72388ZM3.02457 7.51532H3.18372V7.66907H3.02457V7.51532ZM4.9989 7.51035V7.66864H4.53658V7.51035H4.9989ZM5.24757 6.72388H5.40677V7.66888H5.24757V6.72388Z" fill="white"/>
<path fill-rule="evenodd" clip-rule="evenodd" d="M6.16798 7.51033V7.66862H5.29195V7.51033H6.16798ZM4.53613 7.14062H4.69533V7.66891H4.53613V7.14062Z" fill="white"/>
<path fill-rule="evenodd" clip-rule="evenodd" d="M6.03775 6.72388H6.19695V7.66888H6.03775V6.72388ZM5.63978 6.72388H5.79898V7.66888H5.63978V6.72388ZM3.5279 7.1V7.2583H2.68359V7.1H3.5279ZM5.3805 7.1V7.2583H4.5362V7.1H5.3805Z" fill="white"/>
<path fill-rule="evenodd" clip-rule="evenodd" d="M4.53613 7.14062H4.69533V7.66891H4.53613V7.14062Z" fill="white"/>
<path fill-rule="evenodd" clip-rule="evenodd" d="M4.53613 7.14062H4.69533V7.66891H4.53613V7.14062Z" fill="white"/>
<path fill-rule="evenodd" clip-rule="evenodd" d="M4.5362 7.14062H4.6954V7.66891H4.5362V7.14062ZM2.68359 7.14062H2.84279V7.66891H2.68359V7.14062ZM4.04155 7.14062H4.20074V7.66891H4.04155V7.14062ZM3.36875 7.14062H3.52799V7.66891H3.36879L3.36875 7.14062Z" fill="white"/>
<path fill-rule="evenodd" clip-rule="evenodd" d="M4.15317 7.51032V7.66862H3.43945V7.51032H4.15317ZM4.20064 7.09998V7.25827H3.74818V7.09998H4.20064Z" fill="white"/>
<path fill-rule="evenodd" clip-rule="evenodd" d="M6.47168 6.72388H8.7849V6.88217H6.47168V6.72388ZM6.81657 7.51532H6.97576V7.66907H6.81657V7.51532ZM8.79094 7.51035V7.66864H8.32862V7.51035H8.79094ZM9.03956 6.72388H9.19876V7.66888H9.03956V6.72388Z" fill="white"/>
<path fill-rule="evenodd" clip-rule="evenodd" d="M9.96094 7.51033V7.66862H9.08482V7.51033H9.96094ZM8.3291 7.14062H8.4883V7.66891H8.3291V7.14062Z" fill="white"/>
<path fill-rule="evenodd" clip-rule="evenodd" d="M9.82974 6.72388H9.98894V7.66888H9.82974V6.72388ZM9.43178 6.72388H9.59097V7.66888H9.43178V6.72388ZM7.31989 7.1V7.2583H6.47559V7.1H7.31989ZM9.17255 7.1V7.2583H8.32824V7.1H9.17255Z" fill="white"/>
<path fill-rule="evenodd" clip-rule="evenodd" d="M8.3291 7.14062H8.48829V7.66891H8.3291V7.14062Z" fill="white"/>
<path fill-rule="evenodd" clip-rule="evenodd" d="M8.3291 7.14062H8.48829V7.66891H8.3291V7.14062Z" fill="white"/>
<path fill-rule="evenodd" clip-rule="evenodd" d="M8.32824 7.14062H8.48744V7.66891H8.32824V7.14062ZM6.47559 7.14062H6.63478V7.66891H6.47559V7.14062ZM7.83359 7.14062H7.99274V7.66891H7.83354L7.83359 7.14062ZM7.16079 7.14062H7.31998V7.66891H7.16079V7.14062Z" fill="white"/>
<path fill-rule="evenodd" clip-rule="evenodd" d="M7.94517 7.51032V7.66862H7.23145V7.51032H7.94517ZM7.99264 7.09998V7.25827H7.54017V7.09998H7.99264Z" fill="white"/>
<path fill-rule="evenodd" clip-rule="evenodd" d="M10.2783 6.72388H12.5915V6.88217H10.2783V6.72388ZM10.6232 7.51532H10.7824V7.66907H10.6232V7.51532ZM12.5976 7.51035V7.66864H12.1353V7.51035H12.5976ZM12.8462 6.72388H13.0054V7.66888H12.8462V6.72388Z" fill="white"/>
<path fill-rule="evenodd" clip-rule="evenodd" d="M13.7676 7.51033V7.66862H12.8915V7.51033H13.7676ZM12.1357 7.14062H12.2949V7.66891H12.1357V7.14062Z" fill="white"/>
<path fill-rule="evenodd" clip-rule="evenodd" d="M13.6364 6.72388H13.7956V7.66888H13.6364V6.72388ZM13.2384 6.72388H13.3976V7.66888H13.2384V6.72388ZM11.1265 7.1V7.2583H10.2822V7.1H11.1265ZM12.9792 7.1V7.2583H12.1349V7.1H12.9792Z" fill="white"/>
<path fill-rule="evenodd" clip-rule="evenodd" d="M12.1357 7.14062H12.2949V7.66891H12.1357V7.14062Z" fill="white"/>
<path fill-rule="evenodd" clip-rule="evenodd" d="M12.1357 7.14062H12.2949V7.66891H12.1357V7.14062Z" fill="white"/>
<path fill-rule="evenodd" clip-rule="evenodd" d="M12.1349 7.14062H12.2941V7.66891H12.1349V7.14062ZM10.2822 7.14062H10.4414V7.66891H10.2822V7.14062ZM11.6402 7.14062H11.7994V7.66891H11.6402L11.6402 7.14062ZM10.9674 7.14062H11.1266V7.66891H10.9674V7.14062Z" fill="white"/>
<path fill-rule="evenodd" clip-rule="evenodd" d="M11.7518 7.51032V7.66862H11.0381V7.51032H11.7518ZM11.7993 7.09998V7.25827H11.3468V7.09998H11.7993Z" fill="white"/>
<path fill-rule="evenodd" clip-rule="evenodd" d="M14.1064 6.72388H16.4197V6.88217H14.1064V6.72388ZM14.4513 7.51532H14.6105V7.66907H14.4513V7.51532ZM16.4257 7.51035V7.66864H15.9634V7.51035H16.4257ZM16.6743 6.72388H16.8335V7.66888H16.6743V6.72388Z" fill="white"/>
<path fill-rule="evenodd" clip-rule="evenodd" d="M17.5957 7.51033V7.66862H16.7196V7.51033H17.5957ZM15.9639 7.14062H16.1231V7.66891H15.9639V7.14062Z" fill="white"/>
<path fill-rule="evenodd" clip-rule="evenodd" d="M17.4645 6.72388H17.6237V7.66888H17.4645V6.72388ZM17.0665 6.72388H17.2257V7.66888H17.0665V6.72388ZM14.9547 7.1V7.2583H14.1104V7.1H14.9547ZM16.8073 7.1V7.2583H15.963V7.1H16.8073Z" fill="white"/>
<path fill-rule="evenodd" clip-rule="evenodd" d="M15.9639 7.14062H16.1231V7.66891H15.9639V7.14062Z" fill="white"/>
<path fill-rule="evenodd" clip-rule="evenodd" d="M15.9639 7.14062H16.1231V7.66891H15.9639V7.14062Z" fill="white"/>
<path fill-rule="evenodd" clip-rule="evenodd" d="M15.963 7.14062H16.1222V7.66891H15.963V7.14062ZM14.1104 7.14062H14.2695V7.66891H14.1104V7.14062ZM15.4684 7.14062H15.6275V7.66891H15.4683L15.4684 7.14062ZM14.7956 7.14062H14.9547V7.66891H14.7956V7.14062Z" fill="white"/>
<path fill-rule="evenodd" clip-rule="evenodd" d="M15.5799 7.51032V7.66862H14.8662V7.51032H15.5799ZM15.6274 7.09998V7.25827H15.1749V7.09998H15.6274Z" fill="white"/>
<path fill-rule="evenodd" clip-rule="evenodd" d="M17.9121 6.72388H20.2253V6.88217H17.9121V6.72388ZM18.257 7.51532H18.4162V7.66907H18.257V7.51532ZM20.2314 7.51035V7.66864H19.7691V7.51035H20.2314ZM20.48 6.72388H20.6392V7.66888H20.48V6.72388Z" fill="white"/>
<path fill-rule="evenodd" clip-rule="evenodd" d="M21.4014 7.51033V7.66862H20.5253V7.51033H21.4014ZM19.7695 7.14062H19.9287V7.66891H19.7695V7.14062Z" fill="white"/>
<path fill-rule="evenodd" clip-rule="evenodd" d="M21.2702 6.72388H21.4294V7.66888H21.2702V6.72388ZM20.8722 6.72388H21.0314V7.66888H20.8722V6.72388ZM18.7603 7.1V7.2583H17.916V7.1H18.7603ZM20.613 7.1V7.2583H19.7687V7.1H20.613Z" fill="white"/>
<path fill-rule="evenodd" clip-rule="evenodd" d="M19.7695 7.14062H19.9287V7.66891H19.7695V7.14062Z" fill="white"/>
<path fill-rule="evenodd" clip-rule="evenodd" d="M19.7695 7.14062H19.9287V7.66891H19.7695V7.14062Z" fill="white"/>
<path fill-rule="evenodd" clip-rule="evenodd" d="M19.7687 7.14062H19.9279V7.66891H19.7687V7.14062ZM17.916 7.14062H18.0752V7.66891H17.916V7.14062ZM19.274 7.14062H19.4332V7.66891H19.274L19.274 7.14062ZM18.6012 7.14062H18.7604V7.66891H18.6012V7.14062Z" fill="white"/>
<path fill-rule="evenodd" clip-rule="evenodd" d="M19.3866 7.51032V7.66862H18.6729V7.51032H19.3866ZM19.434 7.09998V7.25827H18.9816V7.09998H19.434Z" fill="white"/>
<path fill-rule="evenodd" clip-rule="evenodd" d="M21.7178 6.72388H24.031V6.88217H21.7178V6.72388ZM22.0627 7.51532H22.2219V7.66907H22.0627V7.51532ZM24.037 7.51035V7.66864H23.5747V7.51035H24.037ZM24.2857 6.72388H24.4449V7.66888H24.2857V6.72388Z" fill="white"/>
<path fill-rule="evenodd" clip-rule="evenodd" d="M25.207 7.51033V7.66862H24.3309V7.51033H25.207ZM23.5752 7.14062H23.7344V7.66891H23.5752V7.14062Z" fill="white"/>
<path fill-rule="evenodd" clip-rule="evenodd" d="M25.0758 6.72388H25.235V7.66888H25.0758V6.72388ZM24.6779 6.72388H24.8371V7.66888H24.6779V6.72388ZM22.566 7.1V7.2583H21.7217V7.1H22.566ZM24.4186 7.1V7.2583H23.5743V7.1H24.4186Z" fill="white"/>
<path fill-rule="evenodd" clip-rule="evenodd" d="M23.5752 7.14062H23.7344V7.66891H23.5752V7.14062Z" fill="white"/>
<path fill-rule="evenodd" clip-rule="evenodd" d="M23.5752 7.14062H23.7344V7.66891H23.5752V7.14062Z" fill="white"/>
<path fill-rule="evenodd" clip-rule="evenodd" d="M23.5743 7.14062H23.7335V7.66891H23.5743V7.14062ZM21.7217 7.14062H21.8809V7.66891H21.7217V7.14062ZM23.0797 7.14062H23.2388V7.66891H23.0796L23.0797 7.14062ZM22.4069 7.14062H22.5661V7.66891H22.4069V7.14062Z" fill="white"/>
<path fill-rule="evenodd" clip-rule="evenodd" d="M23.1922 7.51032V7.66862H22.4785V7.51032H23.1922ZM23.2397 7.09998V7.25827H22.7872V7.09998H23.2397Z" fill="white"/>
<path fill-rule="evenodd" clip-rule="evenodd" d="M-3.31358 15.9144H-3.02847V16.4069H-3.31358V15.9144ZM4.25412 15.9144H4.53923V16.4069H4.25412V15.9144ZM-9.12012 15.9144H-8.83501V16.4069H-9.12012V15.9144ZM-5.27928 15.9144H-4.99417V16.4069H-5.27928V15.9144ZM-1.46578 15.9144H-1.18067V16.4069H-1.46578V15.9144ZM0.421008 15.9144H0.706166V16.4069H0.420961L0.421008 15.9144ZM2.34725 15.9144H2.63236V16.4069H2.34725V15.9144ZM6.14095 15.9144H6.42606V16.4069H6.14095V15.9144ZM15.7133 15.9144H15.9984V16.4069H15.7133V15.9144ZM8.0671 15.9144H8.35221V16.4069H8.0671V15.9144ZM9.9544 15.9144H10.2395V16.4069H9.9544V15.9144ZM11.8607 15.9144H12.1458V16.4069H11.8607V15.9144ZM13.7675 15.9144H14.0526V16.4069H13.7675V15.9144ZM29.0009 15.9144H29.2859V16.4069H29.0008L29.0009 15.9144ZM17.5611 15.9144H17.8462V16.4069H17.5611V15.9144ZM19.4873 15.9144H19.7724V16.4069H19.4873V15.9144ZM21.4335 15.9144H21.7186V16.4069H21.4335V15.9144ZM23.2614 15.9144H23.5466V16.4069H23.2614V15.9144ZM25.2071 15.9144H25.4922V16.4069H25.2071V15.9144ZM27.1139 15.9144H27.399V16.4069H27.1139V15.9144ZM32.7555 15.9144H33.0406V16.4069H32.7555V15.9144ZM30.9274 15.9144H31.2126V16.4069H30.9274V15.9144ZM-7.20557 15.9144H-6.92045V16.4069H-7.20557V15.9144Z" fill="#D90000"/>
<path fill-rule="evenodd" clip-rule="evenodd" d="M-3.31358 7.62219H-3.02847V8.11461H-3.31358V7.62219ZM4.25412 7.62219H4.53923V8.11461H4.25412V7.62219ZM-9.12012 7.62219H-8.83501V8.11461H-9.12012V7.62219ZM-5.27928 7.62219H-4.99417V8.11461H-5.27928V7.62219ZM-1.46578 7.62219H-1.18067V8.11461H-1.46578V7.62219ZM0.421008 7.62219H0.706166V8.11461H0.420961L0.421008 7.62219ZM2.34725 7.62219H2.63236V8.11461H2.34725V7.62219ZM6.14095 7.62219H6.42606V8.11461H6.14095V7.62219ZM15.7133 7.62219H15.9984V8.11461H15.7133V7.62219ZM8.0671 7.62219H8.35221V8.11461H8.0671V7.62219ZM9.9544 7.62219H10.2395V8.11461H9.9544V7.62219ZM11.8607 7.62219H12.1458V8.11461H11.8607V7.62219ZM13.7675 7.62219H14.0526V8.11461H13.7675V7.62219ZM29.0009 7.62219H29.2859V8.11461H29.0008L29.0009 7.62219ZM17.5611 7.62219H17.8462V8.11461H17.5611V7.62219ZM19.4873 7.62219H19.7724V8.11461H19.4873V7.62219ZM21.4335 7.62219H21.7186V8.11461H21.4335V7.62219ZM23.2614 7.62219H23.5466V8.11461H23.2614V7.62219ZM25.2071 7.62219H25.4922V8.11461H25.2071V7.62219ZM27.1139 7.62219H27.399V8.11461H27.1139V7.62219ZM32.7555 7.62219H33.0406V8.11461H32.7555V7.62219ZM30.9274 7.62219H31.2126V8.11461H30.9274V7.62219ZM-7.20557 7.62219H-6.92045V8.11461H-7.20557V7.62219Z" fill="#239E3F"/>
<path fill-rule="evenodd" clip-rule="evenodd" d="M13.1217 9.2572C13.5202 9.74283 14.7486 12.4284 12.3802 14.1875C11.2667 15.0208 11.9562 15.0629 11.9891 15.203C13.7789 14.2576 14.3634 12.9769 14.3499 11.8296C14.3362 10.6822 13.7245 9.66853 13.1217 9.25739V9.2572Z" fill="#DA0000"/>
<path fill-rule="evenodd" clip-rule="evenodd" d="M13.3585 9.13245C14.2424 9.58245 16.1659 11.8455 14.0956 14.3986C15.382 14.1147 17.0174 10.3478 13.3585 9.13245ZM10.6441 9.13245C9.76021 9.58245 7.83665 11.8455 9.90701 14.3986C8.62061 14.1147 6.98519 10.3478 10.6441 9.13245Z" fill="#DA0000"/>
<path fill-rule="evenodd" clip-rule="evenodd" d="M10.8778 9.2572C10.4793 9.74283 9.25087 12.4284 11.6194 14.1875C12.7327 15.0208 12.0433 15.0629 12.0103 15.203C10.2206 14.2576 9.63607 12.9769 9.64964 11.8296C9.66327 10.6822 10.275 9.66853 10.8778 9.25739L10.8778 9.2572Z" fill="#DA0000"/>
<path fill-rule="evenodd" clip-rule="evenodd" d="M14.2721 14.9583C13.5716 14.9693 12.6885 14.8623 12.0336 14.5239C12.1414 14.7325 12.231 14.8638 12.3389 15.0724C12.9635 15.1296 13.8255 15.2005 14.2722 14.9583H14.2721ZM9.79497 14.9583C10.4955 14.9693 11.3786 14.8623 12.0336 14.5239C11.9257 14.7325 11.836 14.8638 11.7282 15.0724C11.1036 15.1296 10.2416 15.2005 9.79492 14.9583H9.79497ZM11.0799 8.45605C11.2218 8.83115 11.5942 8.88566 11.9928 8.66484C12.2832 8.83813 12.7324 8.84905 12.8873 8.4742C13.0052 9.40157 12.0244 9.1822 11.9879 9.00065C11.6228 9.3516 10.943 9.14891 11.0799 8.45605H11.0799Z" fill="#DA0000"/>
<path fill-rule="evenodd" clip-rule="evenodd" d="M12.0185 15.5423L12.3868 15.1237L12.4394 9.49036L12.0009 9.10669L11.5625 9.47292L11.6501 15.141L12.0185 15.5422V15.5423Z" fill="#DA0000"/>
</g>
</g>
<defs>
<clipPath id="clip0_1976_3793">
<rect width="24" height="24" rx="12" fill="white"/>
</clipPath>
<clipPath id="clip1_1976_3793">
<rect width="32.1818" height="24" fill="white" transform="translate(-4.09082)"/>
</clipPath>
</defs>
</svg>
